<mxfile host="Electron" modified="2023-09-15T00:59:00.848Z" agent="Mozilla/5.0 (Macintosh; Intel Mac OS X 10_15_7) AppleWebKit/537.36 (KHTML, like Gecko) draw.io/21.6.8 Chrome/114.0.5735.289 Electron/25.5.0 Safari/537.36" etag="H_LNem-vqx172tR87pvF" version="21.6.8" type="device">
  <diagram name="architecture" id="h1y93nltM1jdRVQk85Ya">
    <mxGraphModel dx="954" dy="1774" grid="1" gridSize="10" guides="1" tooltips="1" connect="1" arrows="1" fold="1" page="1" pageScale="1" pageWidth="850" pageHeight="1100" background="#ffffff" math="0" shadow="0">
      <root>
        <mxCell id="DUyCDPSrj2KjHvBlCVzs-0" />
        <mxCell id="DUyCDPSrj2KjHvBlCVzs-1" parent="DUyCDPSrj2KjHvBlCVzs-0" />
        <mxCell id="DUyCDPSrj2KjHvBlCVzs-2" value="&lt;font color=&quot;#000000&quot;&gt;Cloud-Controlled Connected Camera&lt;/font&gt;" style="fillColor=none;strokeColor=#000000;verticalAlign=top;fontStyle=0;fontColor=#5A6C86;whiteSpace=wrap;html=1;" parent="DUyCDPSrj2KjHvBlCVzs-1" vertex="1">
          <mxGeometry x="20" y="-56.5" width="360" height="466.5" as="geometry" />
        </mxCell>
        <mxCell id="9UPIl7zY0A4vd4mZRPtU-8" value="" style="shape=trapezoid;perimeter=trapezoidPerimeter;whiteSpace=wrap;html=1;fixedSize=1;size=70;fillColor=#FBFCFF;gradientColor=#E3E3E3;strokeColor=none;" parent="DUyCDPSrj2KjHvBlCVzs-1" vertex="1">
          <mxGeometry x="110" y="86" width="260" height="64" as="geometry" />
        </mxCell>
        <mxCell id="9UPIl7zY0A4vd4mZRPtU-7" value="Bullseye 64 bit" style="fillColor=#EFF0F3;strokeColor=none;dashed=0;verticalAlign=top;fontStyle=0;fontColor=#232F3D;whiteSpace=wrap;html=1;" parent="DUyCDPSrj2KjHvBlCVzs-1" vertex="1">
          <mxGeometry x="110" y="149" width="260" height="251" as="geometry" />
        </mxCell>
        <mxCell id="DUyCDPSrj2KjHvBlCVzs-3" style="edgeStyle=orthogonalEdgeStyle;rounded=0;orthogonalLoop=1;jettySize=auto;html=1;exitX=0;exitY=0;exitDx=20;exitDy=0;exitPerimeter=0;entryX=0;entryY=0.5;entryDx=0;entryDy=0;startArrow=classic;startFill=1;" parent="DUyCDPSrj2KjHvBlCVzs-1" source="DUyCDPSrj2KjHvBlCVzs-4" target="DUyCDPSrj2KjHvBlCVzs-10" edge="1">
          <mxGeometry relative="1" as="geometry" />
        </mxCell>
        <mxCell id="DUyCDPSrj2KjHvBlCVzs-4" value="" style="shape=cube;whiteSpace=wrap;html=1;boundedLbl=1;backgroundOutline=1;darkOpacity=0.05;darkOpacity2=0.1;direction=south;size=30;" parent="DUyCDPSrj2KjHvBlCVzs-1" vertex="1">
          <mxGeometry x="61" y="32" width="70" height="70" as="geometry" />
        </mxCell>
        <mxCell id="DUyCDPSrj2KjHvBlCVzs-5" value="" style="shape=cylinder3;whiteSpace=wrap;html=1;boundedLbl=1;backgroundOutline=1;size=5;" parent="DUyCDPSrj2KjHvBlCVzs-1" vertex="1">
          <mxGeometry x="80" y="22" width="20" height="34" as="geometry" />
        </mxCell>
        <mxCell id="DUyCDPSrj2KjHvBlCVzs-6" value="" style="shape=cube;whiteSpace=wrap;html=1;boundedLbl=1;backgroundOutline=1;darkOpacity=0.05;darkOpacity2=0.1;direction=south;size=30;" parent="DUyCDPSrj2KjHvBlCVzs-1" vertex="1">
          <mxGeometry x="40" y="-19" width="70" height="70" as="geometry" />
        </mxCell>
        <mxCell id="DUyCDPSrj2KjHvBlCVzs-7" value="Camera module + Servo" style="text;html=1;strokeColor=none;fillColor=none;align=center;verticalAlign=middle;whiteSpace=wrap;rounded=0;" parent="DUyCDPSrj2KjHvBlCVzs-1" vertex="1">
          <mxGeometry x="40" y="111" width="90" height="30" as="geometry" />
        </mxCell>
        <mxCell id="DUyCDPSrj2KjHvBlCVzs-10" value="Raspberry Pi" style="shape=image;verticalLabelPosition=bottom;verticalAlign=top;imageAspect=0;aspect=fixed;image=data:image/png,iVBORw0KGgoAAAANSUhEUgAAAfUAAAH1CAYAAADvSGcRAAAACXBIWXMAAC4jAAAuIwF4pT92AAAFG2lUWHRYTUw6Y29tLmFkb2JlLnhtcAAAAAAAPD94cGFja2V0IGJlZ2luPSLvu78iIGlkPSJXNU0wTXBDZWhpSHpyZVN6TlRjemtjOWQiPz4gPHg6eG1wbWV0YSB4bWxuczp4PSJhZG9iZTpuczptZXRhLyIgeDp4bXB0az0iQWRvYmUgWE1QIENvcmUgNi4wLWMwMDYgNzkuZGFiYWNiYiwgMjAyMS8wNC8xNC0wMDozOTo0NCAgICAgICAgIj4gPHJkZjpSREYgeG1sbnM6cmRmPSJodHRwOi8vd3d3LnczLm9yZy8xOTk5LzAyLzIyLXJkZi1zeW50YXgtbnMjIj4gPHJkZjpEZXNjcmlwdGlvbiByZGY6YWJvdXQ9IiIgeG1sbnM6eG1wPSJodHRwOi8vbnMuYWRvYmUuY29tL3hhcC8xLjAvIiB4bWxuczpkYz0iaHR0cDovL3B1cmwub3JnL2RjL2VsZW1lbnRzLzEuMS8iIHhtbG5zOnBob3Rvc2hvcD0iaHR0cDovL25zLmFkb2JlLmNvbS9waG90b3Nob3AvMS4wLyIgeG1sbnM6eG1wTU09Imh0dHA6Ly9ucy5hZG9iZS5jb20veGFwLzEuMC9tbS8iIHhtbG5zOnN0RXZ0PSJodHRwOi8vbnMuYWRvYmUuY29tL3hhcC8xLjAvc1R5cGUvUmVzb3VyY2VFdmVudCMiIHhtcDpDcmVhdG9yVG9vbD0iQWRvYmUgUGhvdG9zaG9wIDIyLjQgKE1hY2ludG9zaCkiIHhtcDpDcmVhdGVEYXRlPSIyMDIxLTA4LTEyVDA5OjEwOjI4KzAxOjAwIiB4bXA6TW9kaWZ5RGF0ZT0iMjAyMS0wOC0xMlQwOToxNzo0MiswMTowMCIgeG1wOk1ldGFkYXRhRGF0ZT0iMjAyMS0wOC0xMlQwOToxNzo0MiswMTowMCIgZGM6Zm9ybWF0PSJpbWFnZS9wbmciIHBob3Rvc2hvcDpDb2xvck1vZGU9IjMiIHBob3Rvc2hvcDpJQ0NQcm9maWxlPSJzUkdCIElFQzYxOTY2LTIuMSIgeG1wTU06SW5zdGFuY2VJRD0ieG1wLmlpZDoyODNhOWY4Yy1iM2ViLTQ1YzEtODk0YS0xODVhOThjOTFiMTQiIHhtcE1NOkRvY3VtZW50SUQ9InhtcC5kaWQ6MjgzYTlmOGMtYjNlYi00NWMxLTg5NGEtMTg1YTk4YzkxYjE0IiB4bXBNTTpPcmlnaW5hbERvY3VtZW50SUQ9InhtcC5kaWQ6MjgzYTlmOGMtYjNlYi00NWMxLTg5NGEtMTg1YTk4YzkxYjE0Ij4gPHhtcE1NOkhpc3Rvcnk+IDxyZGY6U2VxPiA8cmRmOmxpIHN0RXZ0OmFjdGlvbj0iY3JlYXRlZCIgc3RFdnQ6aW5zdGFuY2VJRD0ieG1wLmlpZDoyODNhOWY4Yy1iM2ViLTQ1YzEtODk0YS0xODVhOThjOTFiMTQiIHN0RXZ0OndoZW49IjIwMjEtMDgtMTJUMDk6MTA6MjgrMDE6MDAiIHN0RXZ0OnNvZnR3YXJlQWdlbnQ9IkFkb2JlIFBob3Rvc2hvcCAyMi40IChNYWNpbnRvc2gpIi8+IDwvcmRmOlNlcT4gPC94bXBNTTpIaXN0b3J5PiA8L3JkZjpEZXNjcmlwdGlvbj4gPC9yZGY6UkRGPiA8L3g6eG1wbWV0YT4gPD94cGFja2V0IGVuZD0iciI/PqmigLoAABSNSURBVHja7d2xkaNYHsDhDUEhyBlfIeCdNVUKQXXOuQoB52pdhUACV6eqtsYjBIWgEMhABytup1sNCKSHBI/P+Gpv9nZmin+L9wME0h+Xy+UPAGD+DAEARB0AEHUAQNQBAFEHAFEHAEQdABB1AEDUAUDUAQBRBwBEHQAQdQBA1AFA1AEAUQcARB0AEHUAEHUAQNQBAFEHAEQdAEQdABB1AEDUAQBRBwBEHQBEHQAQdQBA1AEAUQcAUQcARB0AEHUAQNQBQNQNAQBEHQAQdQBA1AEAUQcAUQcARB0AEHUAQNQBQNQBAFEHAEQdABB1AEDUAUDUAQBRBwBEHQAQdQAQdQBA1AEAUQcARB0ARB0AEHUAQNQBAFEHAEQdAEQdABB1AEDUAQBRBwBRBwBEHQAQdQBA1AFA1A0BAEQdABB1AEDUAQBRBwBRBwBEHQAQdQBA1AFA1AEAUQcARB0AEHUAQNQBQNQBAFEHAEQdABB1ABB1AEDUAQBRBwBEHQBEHQAQdQBA1AEAUQcARB0ARB0AEHUAQNQBAFEHAFEHAEQdABB1AEDUAUDUDQEARB0AEHUAQNQBAFEHAFEHAEQdABB1AEDUAUDUAQBRBwBEHQAQdQBA1Af4x39+bkr7UlbKAfjbobQrrfVC1Kcc8lUpLZ1LFwDuOlWB1xBRn2LMCzsowEOqk6Gtpoj6FC6zOzMHCONYnSjpi6i/I+g7OyDAKGftG50RdUEHiEMh7KL+qqBv7XAALwm7S/GiPmrQ126IA3jd3fHiK+pjRj1/4L2hrL47HmDpjg+cGKUCLOrvfh+9evYy8aIBaHwMeDcg7i7Di/ooL8Tz00eVv34kpbTBoAOAnz9/7kop0Fv/Ty/79WNV2jbsp/uSm7fCxj13ti7q73jxJT1feLuGBWJdykpF6dKhqBeOVY+o56UL0FvSI+bVQffxzn5aOZd8Clq49fXY52zdrEQ95Isu6/GiyxoWiX2PmDfFfSfq8KKoX8/MjwP308rJmXuwM/Y+V0J94pyoB3vRFYPf87menV+ekIk6jBz1a9BPT+ynxV+X6gXiFVdDM7MS9VCPsQ17v6c76NUikH/SdSZ/6Bn1c/3vgOaD3uSBoJ9u9tWuuDtjf36tPXm8TdSncgS5+bRQ7DoWiG3L2cK2Y3HZ9oi6m0jg6z7SJ+rH1qtk1b0wzQcBacuBeNHnfpghPj4+LoxP1JcX9f29qN/s9MWQS+k9zvDPt4uFqMOTUb8eSDeFuc8NdeuWg/BM1EVd1Kcf9fRO1PNPO3v69I7eHPa9qEPQqDdFORmwn67qA+7bP2Mt6qIu6vFE/fztLHvo39m8WJxEHQJFvXr/+3uM0wf21eTeAbioi7qozzXq10tytzv4Y8+yXh+Fu/2zVqIOQaKedu1fA/fV2xvo8rGi7udqrqL+2qhvAy4U665Lg6IOT0X9GCzETQfg4iPqoh5F1NOuS+YPLBZF21m/qMNTUc+fvvTedQlefERd1KOMev5k1E9tC4+og6hjrqL+2qgXT0a99Xl1UYegUT+IuqiLuqjfRj0J9nhL89253lOHMFHPgr1VVh0QhDyYFx9RF/XJRH0V5DGZtmfVPdIGoaK+e+oZ9a/76u3jp0fxEXVRj+c59bzhE6rWAc7Sj6IOwaLedACePxD0NNhjrOIj6qI+yajvWj7zfdVzkVj1+aQrUYcnot52NWzIpz+2fcys+Ii6qEcU9eaz9X7fu3w9Qz/3OYMQdXg66uuOL3NZDX42PfCnyYmPqIv6dKK+6fg61aw+wl99OjPfdnxVa+Ple1GHJ6PeHeeivgEuuTkI2LUceAf9JDnxEXVRn1LU2y/NDVW0nd23fF800C7pfVPqcKfQX7sqPqIu6lOK+u+wF6GDLuoQMOrNj6W9PejiI+qiPrWo/75klw9cJI73FglRh4BR//05E+eBB96p+Ii6qC8p6l8XjKxj0TjX//+m5/uFog4ho/71CZbjnTPz/Vhn5+Ij6qI+h6h/P3tPPhm8OJQL1KZapIDehkf4etPr731VfERd1EUdQHzMVdRFfa6X3xMLB4iPuYq6qIs6ID7mKuqiLuogPpirqIu6qIP4mKuoi/qEop698a5iUQfxMVdRF/WAUU/fNR9RB/ExV1EXdVEHxMdcRV3URR3EB3MVdVEXdRAfczVXURd1UQfxMVdRF3VRB8THXEVd1EUdxEd8zFXURV3UQXwwV1EXdVEH8TFXURd1URd1EB9zFXVRF3VAfMxV1EVd1EF8MFdRF3VRB/ExV1EXdVEXdRAfcxV1URd1QHzMVdRFXdRBfDBXURd1UQfxwVxFXdRFHcTHXEVd1EUdEB9zFXVRF3UQH/ExV1EXdVEH8cFcRV3URR3Ex1xFXdRFXdRBfMxV1EVd1AHxMVdRF3VRB/HBXEVd1EUdxMdcRV3URV3UQXzMVdRFXdQB8TFXURd1UQfxMRNzFXVRjyjq5Q64Ku1KaSmfuWO9HdsHf/6x2AmN+JirqIv6gqJexzy73RkjUlSBf2Lmc5YKjfiYq6iL+kKiXu50m9I54qB/dqoOYEQd8TFXURf16KJe7nDr+iz2siB3wy7q4oO5irqozzHqp47wZfV70nN17LgCkQ2ceVa9BmbiLOriY66iLuoLi3p9Q1zTe89JZAvMvuVqxDrGJw6m9NoVH3MVdVEX9ddF/dgQ9E2ki8y2IeoHURcf8TFXURf1WKJ+G7k08oXm9iDmJOriIz7mKuqiPvuo13e830Z9E/lCs+u72Ii6+GCuoi7qc4p6srQdb8g2i7r4YK6i/qaoNyxifSWiLuqiLj7iY66iLuqiLuqiHll8GIeoi7qoi7qoi7qoi7qoi/poUa8+fCR5E1EXdVEXdVEX9cVGPXs2jk8cKLyCqIu6qIu6qIv6YqKePrtQi7qoizqRrreXOxJzEnVRF3VRF3VEHVEXdVEXdVFH1EVd1EeMusCJuqgj6oi6qIu6qIs6oo6oi7qoi7qoI+qiLuqiLuqiLuqIuqiLuqiLuqgj6qIu6qIu6qIu6og6oi7qoi7qoo6oi7qoi7qoi7qoI+qiLuqiLuqijqiLuqiLuqiLuqgj6oi6qIu6qIs6oi7qoi7qoi7qoo6oi7qoi7qoi7qoj/pa8j3pvk9d1EVd1EVd1EVd1EVd1EVd1EVd1EVd1EVd1EVd1EVdiEVd1EVd1AVO1EWdHlE3E/MRdVEXdVEXddEyH1EXdVEXdVEXddEyH1EXdVEXdVFHtMxH1EVd1EVd1BEt8xF1URd1URd10TIfURd1URd1URd10TIfURd1URd1URd10TIfURd1UbfNoo5omY+oi7qoi7qoi5b5mI+oi7qoi7qoi5b5iLqoi7qoi7qoi5b5iLqoi7qoizqiZT6iLuqiLuqiLlqiZT6iLuqiLuqiLlrmI+qiLuqiLuqiLlrmI+qiLuqiLuqIlvmIuqiLuqiLOqJlPqIu6qIu6qIuWuYj6qIu6qIu6qIuWuYj6qIu6qIu6qIuWuYj6qIu6rZZ1BEt8xF1URd1URd10cJ8RF3U37XTrW93vCp6kW/zTtQRLfMRdVFfxI5XyiLf3vxme3NRR7TMR9RFPZYd79gQ9s1SztJLqagjWuYj6qIe7XvMpaK0j2gbV1W8G7azshZ1RMt8RF3UY74k/TnueQQuLdI7r6nb18qpfp3NQSHqomU+oi7qy9z5qjPZU0f8YpT3ONu9RETURct8RF3UhT1K1X0EK1FHtMxH1EU99h1xXzpHGvNqu7YD3pcWdUTLfERd1KPYITd14NMI7B65o796DUXE61y0zEfURR1AtMxH1EUdEC3zMR9RF3VAtMxH1EVd1AHRMh9RF3UA0TIfURd1QLTMxHxEXdQB0TIfURd1UQdEy3xEXdRFHRAt8xF1UQcQLfMRdVEHRMt8RF3URR0QLfMRdVEXdUC0zEfURR1eqHwdbqrX4gNW5ida5iPqoi7qTCvq+YPfk+71K1rmI+qiblFE1BEt8xF1UQdRR7TMR9RFHURdtMxH1EVd1Fla1L1+Rct8RF3ULYqIOu+IFt1EXdRFHVH3+hV1URd1UbcoIuqIuqiLuqiDqCPqoi7qog6ivqioz9adtbaShP47RV3URR1R9/oVdVEXdVH3nC+iDh3r7d2om5OoizqIOqKOqIs6oi7qiLqoi7qoI+pmiKiLenRR933UiDqIuqjHEHUQdRB1URd1EHVEXdRFXdRB1BF1RF3UQdQRdVEXdRB1UUfURV3UQdRB1EVd1EHUEXVEXdRB1BF1URd1UUfURR1RF3VRB1EHURd1UQdR576Pj48L/Ym6qIs6oi7qoi7qoi7qIOqIuqiLuqiDqCPqoi7qog6ivtyom4n5iLqog6iLlvmIuqiDqIu6aJmPqIs6iDqiZT6iLuown6iXC2nyJivRwnxEXdQR9bBRf9edzoloYT6iLuqIuqiLlvmIuqiDqIu6aJmPqIs6iLqoi5b5iLqow5yi/qrFW9QxH1EXdURd1EXLfERd1EHURV20zEfURR1EXdRFy3xEXdRB1EVdtMxH1EUdRF20zEfURd2OgqiLumiZj6iLOoi6qIuW+Yi6qIOoi7pomY+oizqIumiJuqiLuqgj6qIuWuYj6qIOoi7qomU+oi7qIOqiLlrmI+qiDqIu6l7L5iPqog6iLlrmI+qiDqIu6qJlPqIu6iDqoi5a5iPqog6iLuqiZT6iLuog6qIl6qIu6qKOqIu6aJmPqIs6iLqoi5b5iLqog6iLumiZj6i/Neq/fiSlQykvnUqX+p/Vr9PSpucLclMtTjOwCrwjvmu71yMvMJP++Swu6r9+rEq7Ulbvm0W9r1b/+1jal9aiJeqivtSoXxeIc70w3FP9d9uBC9VUJSMv0K/0xwvDM6mfz2Kifo15+ini92RTjbtomY+ojxH16yJx7LlA3Dr+9ftFXdRFffyoV1fJ+h9439qJlqiLeuxRvwb99OAicfl0aX4l6qIu6iNG/XolrXhyX81ES9RFPdaodwe9qC/bpfV77Gn966I17KIu6qI+TtSvZ+hFx1thh/o99F29r3YdqO9FS9RFPc6oH1p2+rTtknp9IND++2bwgnx11F+8LbNfYES9MernlgPvXcd77+v6prmmfXUjWqIu6jFF/brDNy0S/QJ3PSNoWizWoi7qoh5wm68H2b3e8mrZV7OG35+LlqiLelxRz56+keZ6ue/2zziIuqiLetCoFw0H36uB+2o+xbN10TIfUQ8X9SLIkfv3xeIs6qIu6oG2uXpsNMRd7M1X5g6iJeqiHkPUrze+3e7g2wejvm07AxB1URf1p6OefjtLf/Tv+X517iRaoi7qcUT9+/vhz/zd36OeiLqoi3qQqOfBHkkLvd+LlvmI+mSinga9aeb7nbmpqIu6qI8S9fSJ/TQRdVEXdVEXdVEXdVEXLfMRdZffRV3URX1Cl9+3oi7qor6cG+U2wRYKN8qJuqiPdaPc2Y1yoi7qot7nkbbswYUib7s7V9RFXdQn80jbKtg+L1rmI+qz+fCZ7cCFYtf1hRGiLuqiPsqHz5wf+PCZY9vbZKIl6qI+36gXdz6Mouh9Gb79CybWoi7qoh406j4mVtRFfaFRT+5EvbL+tLMfBn+L0/UyXtry+w5zeEGKuqjPLOqrli90OXeebV8P3I8t+2oiWqIu6tOP+qZH1Pc3i8Xpztc57uob63b1r4u+36ku6qL+5qhnVbAbzPFb2pKOr1I9ffqK5KT+ToZjx3+fipaoi/p8wl7cifq54Wj+3LEA9NF4KVDURf3NUe8rmcU2t38z4hDZlKNFN1FfZtSzHmfracMl9fzBRSJve29P1EVd1ANv8/VMvHhwX02nfiaKqIv696hve0S9smtYMPYDztrP9x6tEXVRF/URtvl6EJ4NPPDezOHyMqIu6s1hPz8c9t/PxmYN77fn9b/fTi1uoi7qi4n617j///3z881TLHn9PvtmymuVUIu6qPeL+q5n1CvHL3fEL+AmD1GPM+q2eZY3gv1t4lc/zwPW1PWS+yPq470QTwNehJf6v0/rF3ASwlyi/u/jn/tQ2/zq7b79u0Jux7u2a+yfj22mh+rE6DAw5t/vV0LUX/x426jmEvV//vdfs93uhqjP/uc59s/HNjOS6sRoJcCiPpXL8KIu6gJnm3lM9SjxRndE/RVhP4i6qAucbUbQRT2esO9FXdQFzjYj6KIe1/PrhaiLusDZZoK9h+5Od1F/a9hXPT9xTtRFXeBEnfazc3e5i/qk4r6u416IuqgLnG2ml3P92K873EV98pflq5vp8geeyRy0IE7V2FF/pVcGbq4/H9vMgMvreR1y75uLOjP6+MUkou2O8eeZLPA1nFhDQNRFXdQFzjaDqDPKgpiLuqiLuqiDqMcR9U21OM3AKpLtXo8c9Sh+Po9sc8M3uwX582//3ClsM4g6vPmbp+bwbVdz9qqoh/pzQdQBRB1EHRB1UQdRB2YY9akfLICoA4g6iDog6qIOog6IuqiDqAOiDqIOIOog6oCoj8q8QdQBUQdRBxB1EHVA1EUdRB0AEHUAEHUAQNQBAFEHAEQdABB1ABB1AEDUAQBRBwBEHQBEHQAQdQBA1AEAUQcAUQcARB0AEHUAQNQBAFEHAFEHAEQdABB1AEDUAUDUAQBRBwBEHQAQdQAQdQBA1AEAUQcARB0AEHUAEHUAQNQBAFEHAEQdAEQdABB1AEDUAQBRBwBEHQBEHQAQdQBA1AEAUQcAUQcARB0AEHUAQNQBQNQBAFEHAEQdABB1AEDUAUDUAQBRBwBEHQAQdQAQdQBA1AEAUQcARB0ARB0AEHUAQNQBAFEHAEQdAEQdABB1AEDUAQBRBwBRBwBEHQAQdQBA1AEAUQcAUQcARB0AEHUAQNQBQNQBAFEHAEQdABB1ABB1AEDUAQBRBwBEHQAQdQAQdQBA1AEAUQcARB0ARB0AEHUAQNQBAFEHAFEHAEQdABB1AEDUAQBRBwBRBwBEHQAQdQBA1AFA1AEAUQcARB0AEHUAQNQBQNQBAFEHAEQdABB1ABB1AEDUAQBRBwBEHQCW6H/r/hygKrblEAAAAABJRU5ErkJggg==;clipPath=inset(23.67% 12.67% 24% 12.33%);" parent="DUyCDPSrj2KjHvBlCVzs-1" vertex="1">
          <mxGeometry x="181.56" y="11" width="117.52" height="82" as="geometry" />
        </mxCell>
        <mxCell id="DUyCDPSrj2KjHvBlCVzs-11" value="" style="shape=image;verticalLabelPosition=bottom;verticalAlign=top;imageAspect=0;aspect=fixed;image=data:image/png,iVBORw0KGgoAAAANSUhEUgAAAfUAAAH1CAYAAADvSGcRAAAACXBIWXMAAC4jAAAuIwF4pT92AAAUb0lEQVR4nO3dT24dyWHH8ZrAGyMBJGeT7DQJAm5HPoHoDcEF0SPzAuKcwMwJRjqBOSewdAGa09CC4GaoE1jaEggsbYMAEY2sjCQMmq8UcVqPeo8U/1T/+PkAhMejkdh6Rbzvq+7q6q9OTk4KADB9f2MMASCDqANACFEHgBCiDgAhRB0AQog6AIQQdQAIIeoAEELUASCEqANACFEHgBCiDgAhRB0AQog6AIQQdQAIIeoAEELUASCEqANACFEHgBCiDgAhRB0AQog6AIQQdQAIIeoAEELUASCEqANACFEHgBCiDgAhRB0AQog6AIQQdQAIIeoAEELUASCEqANACFEHgBCiDgAhRB0AQog6AIQQdQAIIeoAEELUASCEqANACFEHgBCiDgAhRB0AQog6AIQQdQAIIeoAEELUASCEqANACFEHgBCiDgAhRB0AQog6AIQQdQAIIeoAEELUASCEqANACFEHgBCiDgAhRB0AQog6AIQQdQAIIeoAEELUASCEqANACFEHgBCiDgAhRB0AQog6AIQQdQAIIeoAEELUASCEqANACFEHgBCiDgAhfmEgSbC+262WUr6uX7Cs96WU18PX/mb/3qvG1H11cnJiEJmc9d1uiPfjUspWKeUbI8gVeFdK2SulPN/f7F97QZkiUWdS6ox8u5TyrZHjGg2Bf7q/2T/3IjMlos4k1Jn5jphzw4a4b+1v9odeeKbAQjmat77bPa7XPQWdm/aglPLT+m6345VnCszUaVp9M/2dUaIBb0opqxbU0TJRp1nru91wPfOJEaIhwk7TnH6nSYJOo4Y7LQ7Xd7v7BogWuU+d5qzvdttfEPQ39d5jWMajS7xK39Rb31a9wrTG6Xeasr7bPSyl/OmCx/RieJPd3+z3jCYXVX/mturXvQv89mf7m/1TLzgtEXWasr7bvb7AZjI/Dves72/2b40iX6qeUt+uX8vG/Z/8/NESUacZ67vdMFP6wxLHc1xjbmMQrlyduT9f8sPlq/3N3ml4mmGhHC1Z5lTmcV19LOhci7pF7Gpdn7HIo7rLITRB1GlCnaU/WOJYHtuXm+tWb1lbrTvKLbJlQGiFqNOKx0scxzPbdXJTatiXCfYTt7jRClHn1tU3xEVbwL6re7/DjakfIl8s8f2W+VAK107UacEy1ySf2sWLW7LMWg/X1WmCqNOCh0scg3vQuRX1lrVXC773Mj/DcO1EnRYsmuW8utJZ+sHK1+VgxZtwqusZ30UfKpfdWwGulW1imYIvWxw3vMnPNhRZ/dmb78FKqdfqD0/vS147sghvim5mfBfecTE8899GNNw2UacFi2ZVl5ulH6zcr9dDP/fo1gd1n/kn5WDl1elq57Ujb8xTcLPju8xtlMOHCz873Cqn32nBoi05L35f+uwN//CCz2J/dPq9DlasZG7dDY+vRZpMhaiT5+Mb/mWucw4fMP5YDlasZm7V1YyvNRVEEnUSnbdv93D69btSyq/r128/cw/yXo0H7dm7gvE9NL4kck2dLLMZ9ngjm+N6LXW8gvl1jffTOaG4Vze7sQVoS2anzsfPQDe+UJmpk2beRiGrc97wP5otnJq3z/eTurKadlz1+JqtE0XUyTEL8HgW96ysHS1eaLd2dN4+3xbNtWI2vuPT7sYXzhB1ksxb/LT8I1pn9zGPH7dpwVw75o2F8YUzRJ0k46i/ucQ9yePTuE7PtmN8KeQqxtflFaKIOsncW5zN+MKIqJPMLDub8YURUSfJ+FTsN5dY3TxeOGU22A7jCwuIOknmPbBje+m/3+we9/Hqag95aYfxhQVEnRyzRVPj1c3fL7Ul6GzGtzPnVzzHvRXzx3fb+MJHok6aeW/ch5/dy/38vcRfeGJbc8bje8/4wkeiTpa1o+d1D/Czhjf+n8rByvPTbUY/XIcdZngHKzv1Wu34Df/4nN3LuE0XG99V48tdY+93Ej2ub+TjR7o+qV/DG/6iv7bnqrdrq+7rbnxhxEydPLMtQeft9b2s7z67lzi36/y93I0vd56ok2m2H/jDzzx6c543p4/snJ3ipWUfx/dH4wsfiTq5hhn72tFWfbb2i3oddZ4f6+zt4VIPB6ENs/F9bHzhI9fUyTd7I589oWu2iOrDLVDvvckHML7w/0Sdu2V2vd2GI6mML3ec0+8AEELUASCEqANACFEHgBCiDgAhRB0AQog6AIQQdQAIIeoAEELUASCEqANACFEHgBCiDgAhRB0AQog6AIQQdQAIIeoAEELUASCEqANACFEHgBCiDgAhRB0AQog6AIQQdQAIIeoAEELUASCEqANACFEHgBCiDgAhRB0AQog6AIQQdQAIIeoAEELUASCEqANACFEHgBCiDgAhfmEg4fp0XbdaSvnJS3zqWd/3Txs4Dohlpg4AIUQdAEKIOgCEcE0dbt5v7shrvlNK+aaB44A7Q9ThhvV9f3gXXvOu6943cBhwpzj9DgAhRB0AQog6AIQQdQAIIeoAEELUASCEqANACFEHgBCiDgAhRB0AQog6AISw9zuE6bru61LKainlw/+e9bqU8raUctj3/WtjD1lEHUJ0XbdVStle8GS0Rx/+oeu6d6WU58PT1Pq+9/AVCOD0O0xc13WrXdcNs+8/XPBRpw9KKd8PM/eu6576OYDpE3WYsK7rhpn2TzXQl3VviHvXda/rqXtgopx+hwnquu7+cF18wcz8zZlr6IPh9zw8ewp+ZPizhrCvut4O0yTqMDELgn48XCMfrpX3ff923t+s/v7HpZSnc2b4w6z9UNhhmkQdpmfnnKD/MIR60aK3+uvDafvnXddt17jfO/OfDP+813XdQwvoYFpcU4cJ6bpumGE/mXPE3/V9v33RCPd9v1Nvezse/dKDGn5gQkQdJqKeNp8X2iHolw5wPc0+L+zfDqfh/XzAdIg6TMf26DT54IcvCfoHNeyP5/ySW91gQkQdpmNrdKTvhlPuV3X0fd8Pi+9ejP71o+Haup8RmAZRhwmop8HHK9WvYxY9788cf5gAGiXqMA3ja9vHV3HafazeBvfj6F+7rg4T4ZY27o6DlYd185UPu6a9P92cZe3ocAKvwTis13nMe8MiuTP//yJbz96eaY8vXAlRJ9vByv26wGzr3K1UD1aOa8ielrWjuRu2NGC8fet1bgzzyZ9d71lvbzOanPGFK+H0O7lmM7fX9aEln9sb/V699/vP5WDlyhaeXbHx8V/b7POceN+/zr/cpRysrF5wfF83PL5wJUSdTAcrw8ztT5d40Mnvy8GKTVdaNxvfiz7I5p7xJZ2ok2c2g/vDZ/5er+rXeLOVD56Ug5Wdxl+X9mbON+Vqxtf990QSdbLMrrHOm4kNb/DflVJ+VdaOVuvX8N/+pgZg7Hc1Hq14MzqOa7t3/Jxd5Nq4Fn3++L47Hd+1o6+WHN/vGxtfuBKiTprtOadk35wuNFs7el7Wjn6+N/qwMnoIwKebrpTGdlMbR/U6g/TJB4bznvh2C84b34en4zs2nfGFKyHqpPlk17XTAI5jPrZ2tDXn/uxHdbFdC8YL4x7VveCvw/g1nDfTvS2p4wtXQtTJMXuD/nTXtUVv+B/N2zlt3n7ot2Fvzve88pXc9dT7+L70ed/75n35+M57vVoZX7gSok6ST09Jzzsle55ZHJrcTa2e/h5fV9/uum58//qXmndKuo2of/n42i2PeKJOkvHp6MucNm5vg5WPxivy713lM8+7rts+PSX9cy8aup6ePr7wxUQdJqLu9T6erQ/X1r847F3XbZ3ew/0pi8lgQkSdZJc5Nd36/d/zrvs/GcJ+2YVzNejz7vt+1tAsfZ7LjO9VX66Apog6ScYrxB9cYnXzeOFUU1GrW7j+65xfOt0G9Zx7zOcarsd3Xbd3TtBf9X3f2ix9fOr8MuM7fn2cjieKB7qQZN4b9M7Si6Fm+4Lf2B7rl9X3/c7wgJUa8rOGY/+p67pX9Vr74XimXWfzq/XDy/j3f/Cm0VXh88bi6dLHOpHxhS9hpk6O2er18SYjj5Z6iMdsxjeemR5faHX1Der7fjhl/sM53/FRnX3/ueu6913XHdavIfD/WUr544Kgr/Z9v+xtYjdn/vh++4Xj28rKfrgSok6aeaeMf3+6l/tsi9FPzaJwWFeTn9X0/u993w/H/dvP7HFe6t/pUf1a9PCTH/q+f9hk0D+aNyaR4wuX4fQ7WYZ7kQ9WntXHcZ71u9NFZgcre2euk9+vp27nxe5NWTtqfuV33/d79V71nc/MvhcZTtdvN/m89LG1o9d3aXzhokSdPMOb9cHK13Mid2/J8B1PaVOSOrPe6rruw/XlrTm7wo29q7PXnUnE/KwvH983Np0hlaiTadjr+2ClXGL2+mapvcQbVBfFDTP2nbog7mH9Ontaegj528ZvVVvsDo4vLEPUyTV749+roVt0Pfn49L8LOSVbZ++H0au77/D4wnlEnWyz1c179dnZj+c8VvRtDd+e2dsEGV/4GVHnbhieq+2e5FzGF065pQ0AQog6AIQQdQAIIeoAEELUASCEqANACFEHgBCiDgAhRB0AQthRDm5YfZraXfC1ny24WaION2/8LHCAK+H0OwCEEHUACOH0O1yv4XGfr7zGp942cAwQTdThGvV9/7qUsuo1Bm6C0+8AEELUASCEqANACFEHgBCiDgAhRB0AQog6AIQQdQAIIeoAEELUASCEqANACFFnCr42Stym9d3uvgFgCkSdFix6ipmoc9seLvH9PYWOWyfqTIGnnHHbFkZ9f7MXdW6dqNOCwwXH8MjpT27Zog+WbwwQLRB1WvB6iWN4bKS4Deu73XD559sF33qZn2G4dqJOCxbN1AdPjRS3ZJmfvWV+huHaiTq3bn+zf7/EYrkH67udsHOj1ne74Vr6kyW+556RoQWiTiueL3Ec39c3Wbh2dR3HMrF+UT+Ywq0TdZqwv9kPUT9e4lgOhZ3rVoM+nFJ/sMS3WuYDKdwIUacly5xev1fDbuEc16IujBuC/s0Sf/6r/c3e9XSa8dXJyYnRoBnru93bJWdHgxellG2nPrkq67vddv1weW/JP/LX+5u9le80Q9RpyvpuN9wP/NMFjum4Xvfc8ebKZdSZ+XDmZ/sCHygHz/Y3e4s3aYqo05y6yv37Sx7XolX0c/3dV3/7j78sv/wHPw3Tc3zyl3/7a/nrf13ywB9eYFZ+1pv9zd7aDpoj6jRpfbd7vuStRHDTht3jVl32oUUWytGk/c1+q14zh5a8K6VsCTqtMlOnaWbsNMQMneaZqdO0OmP/bsl72OG6vBB0psBMnUmoK5SHWfsjI8YNeldvm7QNLJMg6kxKveXtqbhzzYaYP607HcJkiDqTVLeK3ar3F1/k3mI4z4c9D/bMzJkqUWfy6j7dQ+RXL/t3+Ze/+efVv//qV+fO/v+7/M/xX07+YnObW/C5cRm8/d93L/795D/efsGRDeP61uZFJBB1KKW8fPly0YY3rzY2Ni79oYHLe/ny5aI3qd9sbGzYf507r1j9DgA5RB0AQog6AIQQdQAIIeoAEELUASCEqANACFEHgBCiDgAhRB0AQog6AIQQdQAIIeoAEELUASCEqANACFEHgBCiDgAhRB0AQog6AIQQdQAIIeoAEELUASCEqANACFEHgBCiDgAhRB0AQog6AIQQdQAIIeoAEELUASCEqANACFEHgBCiDgAhRB0AQog6AIQQdQAIIeoAEELUASCEqANACFEHgBCiDgAhRB0AQog6AIQQdQAIIeoAEELUASCEqANACFEHgBCiDgAhRB0AQog6AIQQdQAIIeoAEELUASCEqANACFEHgBCiDgAhRB0AQog6AIQQdQAIIeoAEELUASCEqANACFEHgBCiDgAhRB0AQog6AIQQdQAIIeoAEELUASCEqANACFEHgBCiDgAhRB0AQog6AIQQdQAIIeoAEELUASCEqANACFEHgBCiDgAhRB0AQog6AIQQdQAIIeoAEELUASCEqANACFEHgBCiDgAhRB0AQog6AIQQdQAIIeoAEELUASCEqANACFEHgBCiDgAhRB0AQog6AIQQdQAIIeoAEELUASCEqANACFEHgBCiDgAhRB0AQog6AIQQdQAIIeoAEELUASCEqANACFEHgBCiDgAhRB0AQog6AIQQdQAIIeoAEELUASCEqANACFEHgBCiDgAhRB0AQog6AIQQdQAIIeoAEELUASCEqANACFEHgBCiDgAhRB0AQog6AIQQdQAIIeoAEELUASCEqANACFEHgBCiDgAhRB0AQog6AIQQdQAIIeoAEELUASCEqANACFEHgBCiDgAhRB0AQog6AIQQdQAIIeoAEELUASCEqANACFEHgBCiDgAhRB0AQog6AIQQdQAIIeoAEELUASCEqANACFEHgBCiDgAhRB0AQog6AIQQdVjOW68T0DpRh5lF0X7tdbo1Py74xsYGKlGHUsrGxsbzUsqbc16L4d8/9zrdmp3PfOMfNjY23of//WFpog4frZZSXo1ej+H/rwrH7dnY2Dgspfy2lPLuzEEcl1KebWxsbN+11wM+56uTkxMvEJzx8uXL+6WUh8Mp+Y2NDdfSG/Ly5cthXO7X0AMjog4AIZx+B4AQog4AIUQdAEKIOgCEEHUACCHqABBC1AEghKgDQAhRB4AQog4AIUQdAEKIOgCEEHUACCHqABBC1AEghKgDQAhRB4AQog4AIUQdAEKIOgCEEHUACCHqABBC1AEghKgDQAhRB4AQog4AIUQdAEKIOgCEEHUACCHqABBC1AEghKgDQAhRB4AQog4AIUQdAEKIOgCEEHUACCHqABBC1AEghKgDQAhRB4AQog4AIUQdAEKIOgCEEHUACCHqABBC1AEghKgDQAhRB4AQog4AIUQdAEKIOgCEEHUACCHqABBC1AEghKgDQAhRB4AQog4AIUQdAEKIOgCEEHUACCHqABBC1AEghKgDQAhRB4AQog4AIUQdAEKIOgCEEHUACCHqABBC1AEghKgDQAhRB4AQog4AIUQdABKUUv4PeCacZeSm1IYAAAAASUVORK5CYII=;clipPath=inset(15.33% 32.33% 49.33% 32%);imageBackground=default;" parent="DUyCDPSrj2KjHvBlCVzs-1" vertex="1">
          <mxGeometry x="40" y="11.14" width="40.24" height="39.86" as="geometry" />
        </mxCell>
        <mxCell id="DUyCDPSrj2KjHvBlCVzs-12" style="edgeStyle=orthogonalEdgeStyle;rounded=0;orthogonalLoop=1;jettySize=auto;html=1;startArrow=classic;startFill=1;" parent="DUyCDPSrj2KjHvBlCVzs-1" source="DUyCDPSrj2KjHvBlCVzs-13" target="DUyCDPSrj2KjHvBlCVzs-19" edge="1">
          <mxGeometry relative="1" as="geometry">
            <Array as="points">
              <mxPoint x="440" y="190" />
              <mxPoint x="440" y="101" />
            </Array>
          </mxGeometry>
        </mxCell>
        <mxCell id="DUyCDPSrj2KjHvBlCVzs-13" value="AWS IoT Device SDK CPP" style="outlineConnect=0;dashed=0;verticalLabelPosition=bottom;verticalAlign=top;align=center;html=1;shape=mxgraph.aws3.android;fillColor=#CFCFCF;gradientColor=none;" parent="DUyCDPSrj2KjHvBlCVzs-1" vertex="1">
          <mxGeometry x="258.31999999999994" y="170" width="40" height="40" as="geometry" />
        </mxCell>
        <mxCell id="DUyCDPSrj2KjHvBlCVzs-14" style="edgeStyle=orthogonalEdgeStyle;rounded=0;orthogonalLoop=1;jettySize=auto;html=1;entryX=0;entryY=0.5;entryDx=0;entryDy=0;entryPerimeter=0;" parent="DUyCDPSrj2KjHvBlCVzs-1" source="DUyCDPSrj2KjHvBlCVzs-16" target="DUyCDPSrj2KjHvBlCVzs-22" edge="1">
          <mxGeometry relative="1" as="geometry" />
        </mxCell>
        <mxCell id="DUyCDPSrj2KjHvBlCVzs-15" style="edgeStyle=orthogonalEdgeStyle;rounded=0;orthogonalLoop=1;jettySize=auto;html=1;entryX=0;entryY=0.5;entryDx=0;entryDy=0;entryPerimeter=0;startArrow=classic;startFill=1;" parent="DUyCDPSrj2KjHvBlCVzs-1" source="DUyCDPSrj2KjHvBlCVzs-16" target="DUyCDPSrj2KjHvBlCVzs-19" edge="1">
          <mxGeometry relative="1" as="geometry">
            <Array as="points">
              <mxPoint x="440" y="260" />
              <mxPoint x="440" y="101" />
            </Array>
          </mxGeometry>
        </mxCell>
        <mxCell id="DUyCDPSrj2KjHvBlCVzs-16" value="Amazon Kinesis Video&lt;br&gt;Streams &lt;b&gt;Producer&lt;/b&gt; SDK CPP" style="outlineConnect=0;dashed=0;verticalLabelPosition=bottom;verticalAlign=top;align=center;shape=mxgraph.aws3.android;fillColor=#96BF3D;gradientColor=none;html=1;" parent="DUyCDPSrj2KjHvBlCVzs-1" vertex="1">
          <mxGeometry x="258.32" y="240" width="40" height="40" as="geometry" />
        </mxCell>
        <mxCell id="DUyCDPSrj2KjHvBlCVzs-17" style="edgeStyle=orthogonalEdgeStyle;rounded=0;orthogonalLoop=1;jettySize=auto;html=1;startArrow=classic;startFill=1;" parent="DUyCDPSrj2KjHvBlCVzs-1" source="DUyCDPSrj2KjHvBlCVzs-19" target="DUyCDPSrj2KjHvBlCVzs-23" edge="1">
          <mxGeometry relative="1" as="geometry" />
        </mxCell>
        <mxCell id="DUyCDPSrj2KjHvBlCVzs-18" style="edgeStyle=orthogonalEdgeStyle;rounded=0;orthogonalLoop=1;jettySize=auto;html=1;startArrow=classic;startFill=1;" parent="DUyCDPSrj2KjHvBlCVzs-1" source="DUyCDPSrj2KjHvBlCVzs-19" target="DUyCDPSrj2KjHvBlCVzs-24" edge="1">
          <mxGeometry relative="1" as="geometry">
            <Array as="points">
              <mxPoint x="511" y="9" />
            </Array>
          </mxGeometry>
        </mxCell>
        <mxCell id="DUyCDPSrj2KjHvBlCVzs-19" value="AWS IoT Core" style="sketch=0;points=[[0,0,0],[0.25,0,0],[0.5,0,0],[0.75,0,0],[1,0,0],[0,1,0],[0.25,1,0],[0.5,1,0],[0.75,1,0],[1,1,0],[0,0.25,0],[0,0.5,0],[0,0.75,0],[1,0.25,0],[1,0.5,0],[1,0.75,0]];outlineConnect=0;fontColor=#232F3E;gradientColor=#60A337;gradientDirection=north;fillColor=#277116;strokeColor=#ffffff;dashed=0;verticalLabelPosition=bottom;verticalAlign=top;align=center;html=1;fontSize=12;fontStyle=0;aspect=fixed;shape=mxgraph.aws4.resourceIcon;resIcon=mxgraph.aws4.iot_core;" parent="DUyCDPSrj2KjHvBlCVzs-1" vertex="1">
          <mxGeometry x="480" y="70.5" width="61" height="61" as="geometry" />
        </mxCell>
        <mxCell id="DUyCDPSrj2KjHvBlCVzs-20" value="IoT Certificate" style="sketch=0;outlineConnect=0;fontColor=#232F3E;gradientColor=none;fillColor=#3F8624;strokeColor=none;dashed=0;verticalLabelPosition=bottom;verticalAlign=top;align=center;html=1;fontSize=12;fontStyle=0;aspect=fixed;pointerEvents=1;shape=mxgraph.aws4.certificate_manager;" parent="DUyCDPSrj2KjHvBlCVzs-1" vertex="1">
          <mxGeometry x="147.5" y="171" width="29.5" height="39" as="geometry" />
        </mxCell>
        <mxCell id="DUyCDPSrj2KjHvBlCVzs-21" style="edgeStyle=orthogonalEdgeStyle;rounded=0;orthogonalLoop=1;jettySize=auto;html=1;startArrow=classic;startFill=1;" parent="DUyCDPSrj2KjHvBlCVzs-1" source="DUyCDPSrj2KjHvBlCVzs-22" target="DUyCDPSrj2KjHvBlCVzs-25" edge="1">
          <mxGeometry relative="1" as="geometry" />
        </mxCell>
        <mxCell id="DUyCDPSrj2KjHvBlCVzs-22" value="Amazon Kinesis&lt;br&gt;Video Streams" style="sketch=0;points=[[0,0,0],[0.25,0,0],[0.5,0,0],[0.75,0,0],[1,0,0],[0,1,0],[0.25,1,0],[0.5,1,0],[0.75,1,0],[1,1,0],[0,0.25,0],[0,0.5,0],[0,0.75,0],[1,0.25,0],[1,0.5,0],[1,0.75,0]];outlineConnect=0;fontColor=#232F3E;gradientColor=#945DF2;gradientDirection=north;fillColor=#5A30B5;strokeColor=#ffffff;dashed=0;verticalLabelPosition=bottom;verticalAlign=top;align=center;html=1;fontSize=12;fontStyle=0;aspect=fixed;shape=mxgraph.aws4.resourceIcon;resIcon=mxgraph.aws4.kinesis_video_streams;" parent="DUyCDPSrj2KjHvBlCVzs-1" vertex="1">
          <mxGeometry x="481" y="230" width="60" height="60" as="geometry" />
        </mxCell>
        <mxCell id="DUyCDPSrj2KjHvBlCVzs-23" value="Device Shadow" style="sketch=0;outlineConnect=0;fontColor=#232F3E;gradientColor=none;fillColor=#3F8624;strokeColor=none;dashed=0;verticalLabelPosition=bottom;verticalAlign=top;align=center;html=1;fontSize=12;fontStyle=0;aspect=fixed;pointerEvents=1;shape=mxgraph.aws4.shadow;" parent="DUyCDPSrj2KjHvBlCVzs-1" vertex="1">
          <mxGeometry x="620" y="71" width="59.77" height="59" as="geometry" />
        </mxCell>
        <mxCell id="DUyCDPSrj2KjHvBlCVzs-24" value="AWS STS" style="sketch=0;outlineConnect=0;fontColor=#232F3E;gradientColor=none;fillColor=#BF0816;strokeColor=none;dashed=0;verticalLabelPosition=bottom;verticalAlign=top;align=center;html=1;fontSize=12;fontStyle=0;aspect=fixed;pointerEvents=1;shape=mxgraph.aws4.sts_alternate;" parent="DUyCDPSrj2KjHvBlCVzs-1" vertex="1">
          <mxGeometry x="627.23" y="-20" width="45.31" height="57" as="geometry" />
        </mxCell>
        <mxCell id="0DxEKW-gdTNWnyqiKlgt-4" style="edgeStyle=orthogonalEdgeStyle;rounded=0;orthogonalLoop=1;jettySize=auto;html=1;entryX=1;entryY=0.5;entryDx=0;entryDy=0;entryPerimeter=0;startArrow=classic;startFill=1;" edge="1" parent="DUyCDPSrj2KjHvBlCVzs-1" source="DUyCDPSrj2KjHvBlCVzs-25" target="0DxEKW-gdTNWnyqiKlgt-0">
          <mxGeometry relative="1" as="geometry">
            <Array as="points">
              <mxPoint x="650" y="339" />
            </Array>
          </mxGeometry>
        </mxCell>
        <mxCell id="DUyCDPSrj2KjHvBlCVzs-25" value="Media Playback" style="outlineConnect=0;dashed=0;verticalLabelPosition=bottom;verticalAlign=top;align=center;html=1;shape=mxgraph.aws3.management_console;fillColor=#F58534;gradientColor=none;" parent="DUyCDPSrj2KjHvBlCVzs-1" vertex="1">
          <mxGeometry x="624.88" y="234.25" width="50" height="51.5" as="geometry" />
        </mxCell>
        <mxCell id="DUyCDPSrj2KjHvBlCVzs-26" value="AWS Cloud" style="points=[[0,0],[0.25,0],[0.5,0],[0.75,0],[1,0],[1,0.25],[1,0.5],[1,0.75],[1,1],[0.75,1],[0.5,1],[0.25,1],[0,1],[0,0.75],[0,0.5],[0,0.25]];outlineConnect=0;gradientColor=none;html=1;whiteSpace=wrap;fontSize=12;fontStyle=0;container=1;pointerEvents=0;collapsible=0;recursiveResize=0;shape=mxgraph.aws4.group;grIcon=mxgraph.aws4.group_aws_cloud_alt;strokeColor=#232F3E;fillColor=none;verticalAlign=top;align=left;spacingLeft=30;fontColor=#232F3E;dashed=0;" parent="DUyCDPSrj2KjHvBlCVzs-1" vertex="1">
          <mxGeometry x="411" y="-56.5" width="319" height="466.5" as="geometry" />
        </mxCell>
        <mxCell id="DUyCDPSrj2KjHvBlCVzs-27" value="" style="sketch=0;outlineConnect=0;fontColor=#232F3E;gradientColor=none;fillColor=#3F8624;strokeColor=none;dashed=0;verticalLabelPosition=bottom;verticalAlign=top;align=center;html=1;fontSize=12;fontStyle=0;aspect=fixed;pointerEvents=1;shape=mxgraph.aws4.camera;" parent="DUyCDPSrj2KjHvBlCVzs-1" vertex="1">
          <mxGeometry x="20" y="-56.5" width="26.5" height="26.5" as="geometry" />
        </mxCell>
        <mxCell id="DUyCDPSrj2KjHvBlCVzs-28" value="&lt;pre style=&quot;font-family: Monaco, Menlo, Consolas, &amp;quot;Courier Prime&amp;quot;, Courier, &amp;quot;Courier New&amp;quot;, monospace; font-size: 14px; margin-top: 0px; margin-bottom: 0px; border: 1px solid var(--color-border-divider-default-z9h069,#eaeded); color: rgb(22, 25, 31); text-align: left;&quot; class=&quot;shadow-detail-page_codeBlock__1B6qi&quot; data-testid=&quot;document&quot;&gt;{&lt;br&gt;  &quot;state&quot;: {&lt;br&gt;    &quot;desired&quot;: {&lt;br&gt;      &quot;pan&quot;: &quot;90&quot;,&lt;br&gt;      &quot;tilt&quot;: &quot;90&quot;&lt;br&gt;    },&lt;br&gt;    &quot;reported&quot;: {&lt;br&gt;      &quot;pan&quot;: &quot;90&quot;,&lt;br&gt;      &quot;tilt&quot;: &quot;90&quot;&lt;br&gt;    }&lt;br&gt;  }&lt;br&gt;}&lt;/pre&gt;" style="shape=callout;whiteSpace=wrap;html=1;perimeter=calloutPerimeter;direction=south;size=60;position=0.52;dashed=1;" parent="DUyCDPSrj2KjHvBlCVzs-1" vertex="1">
          <mxGeometry x="679.77" width="220.23" height="210" as="geometry" />
        </mxCell>
        <mxCell id="DUyCDPSrj2KjHvBlCVzs-29" style="edgeStyle=orthogonalEdgeStyle;rounded=0;orthogonalLoop=1;jettySize=auto;html=1;entryX=0;entryY=0.5;entryDx=0;entryDy=0;entryPerimeter=0;" parent="DUyCDPSrj2KjHvBlCVzs-1" source="DUyCDPSrj2KjHvBlCVzs-30" target="DUyCDPSrj2KjHvBlCVzs-16" edge="1">
          <mxGeometry relative="1" as="geometry" />
        </mxCell>
        <mxCell id="0DxEKW-gdTNWnyqiKlgt-2" style="edgeStyle=orthogonalEdgeStyle;rounded=0;orthogonalLoop=1;jettySize=auto;html=1;entryX=0;entryY=0.5;entryDx=0;entryDy=0;entryPerimeter=0;" edge="1" parent="DUyCDPSrj2KjHvBlCVzs-1" source="DUyCDPSrj2KjHvBlCVzs-30" target="0DxEKW-gdTNWnyqiKlgt-0">
          <mxGeometry relative="1" as="geometry" />
        </mxCell>
        <mxCell id="DUyCDPSrj2KjHvBlCVzs-30" value="GStreamer" style="shape=image;verticalLabelPosition=bottom;verticalAlign=top;imageAspect=0;aspect=fixed;image=data:image/png,iVBORw0KGgoAAAANSUhEUgAAAGAAAABgCAYAAADimHc4AAABhGlDQ1BJQ0MgcHJvZmlsZQAAKJF9kT1Iw0AcxV9bpUVaHCwiIpihOlkQFXHUKhShQqgVWnUwufQLmjQkKS6OgmvBwY/FqoOLs64OroIg+AHi6uKk6CIl/i8ptIjx4Lgf7+497t4B/kaFqWbXOKBqlpFOJoRsblUIviKEfgARDEvM1OdEMQXP8XUPH1/v4jzL+9yfI6LkTQb4BOJZphsW8Qbx9Kalc94njrKSpBCfE48ZdEHiR67LLr9xLjrs55lRI5OeJ44SC8UOljuYlQyVeIo4pqga5fuzLiuctzirlRpr3ZO/MJzXVpa5TnMISSxiCSIEyKihjAosxGnVSDGRpv2Eh3/Q8YvkkslVBiPHAqpQITl+8D/43a1ZmJxwk8IJoPvFtj9GgOAu0Kzb9vexbTdPgMAzcKW1/dUGMPNJer2txY6A3m3g4rqtyXvA5Q4w8KRLhuRIAZr+QgF4P6NvygF9t0DPmttbax+nD0CGukrdAAeHwGiRstc93h3q7O3fM63+fgAqtHKKdHkKCgAAAAZiS0dEAP8A/wD/oL2nkwAAAAlwSFlzAAAN1wAADdcBQiibeAAAAAd0SU1FB+cIFg0OD4RzYVQAABDdSURBVHja7Z15UFRXvsc/9/ZOswqKiiw64BYBFX1i1PjUvDFVxkrG5MXERB+ZmBedqYQyr8w2FV+WKk1NMtFXmjKbqcRJrDKJlZQ+oy/iBMmM4oK4C1GURUFBpBEaerv3vj9oGKAXuqEblfS36hTc2+d2n/v9nfPbzrn3QAghhBBCCL9WCD7UUTuL6KwvhGjzCsVZZMDhLL0SgBrQOosGUIUE4JcAJMAO2JzF4Y8AdIAe0D/wwAPRmzZteiU2Nvbf9Hr9EEVRNCGOvfRoQbBbrdbrtbW1eS+88MI7e/fubQAsgNVZehSADjAAYW+++eak3Nzcz3Q63ZAQtf7DYrHUbtq06enXX3/9BNACtHYXguBG7RgB4+TJk5Py8vJ2GgyGwZIk0V4EIaSBvOofRUGlUnUUs9lcN3/+/IVFRUVVQLNTEB3qSPSgeqI/+uijFw0Gw2C73Y7dbkeW5RD5vqkgZFnGbrfjcDgwGo2DN27c+CIQ7dQsuu49vrvR1QFRCQkJcxwOBw6HI8RqL2G321EUheTk5LnABucIsDnVkKP7CFA7vZ1wIDo8PDxGkqQQi32ELMuEh4fHOEeA0cmx2p0KUjmLDjCq1WqVLMshBgMgAI1Go3KSr3dyrnKngtp9fDWgVRQFRVFCDAbIMDvVe+eA1mUECJ2kowrRFnC08+pRAO6kFkLgRoDHdIPHi0JCCL4ARA/pCTHk8wc2NuiuekIqqDNB16+h2rMTobL8zlFBwRaCWHoO1eGDiL+cR6yqQLFaEWxWiIxCjopGSUxGSR6JND4Deew4UKkDS7rVgupvP6L63+9QnTsNioL17feQE5P7Vfie7koICvmSA/WPP6D++ivEyxdd9B4AN+vbXLCTx8EZtSh6A8qETKTMyciZk5HHTUDR9C4pK/5SgmrvLjQ/7obmpn82LXsG0ozZwRwBgq8CEIIhAFXB39B+sgmhqsL/3mppRThWiHissO2GtDqU8ROQJmYhTZyCMn4CilbnmfRrNajyfkC9bw9CxWXXYGlkKtbX14EoBlsAQk8C6FIpIEK41Yhu/TrU+XmBUx82K8KJIsQTRWj4GEWjQRmVhpyQiBI3GFQqsNkQ6usQS84hXqv2PCjHTcD6zv+ghIVB8O2eixDUXir2HU23MKxagXjpQnDvym5HKD2HWHrOr+scs+Zge+0tFL2hX2y930a4z4a26RbS9JlIU6ahxAxCiY5BiRuMHDcEIiLbevLVKlRnT6E6UYR4+iRIwc++Klot9j+swv7Qv99+D6zT/5G0ZeySgbENDQ0f22y2/m1N0y3URw6h+scBNEWHoelW4P2A7JlY/7AKeURSv92WVqslJibmP4ESoAIwAbeCPgL8RkQkjnnzccybj1WWUJ0/i+rIQVRHDqG6UAJ9yM5KU6djW/IfSJlZd9Qtqz3pqNseCYsqpHsykO7JgKdXIDQ2oDp2BPWRg6iOHkIwNfR4vZw2Bkf2TBz3P4CckHi7I2G3mueuyQUpkdHIc3+Lfe5vQZYRq68gVlxGrL0OrS0INmtbvDAoFnlYAtKoVDCGd76hOzIXpPbFVbrjIIrII5L6VY8HwwV1lwsSCC2+CrYAfIsDZFkOpaMDBOfUrttOLYbo8VOfo3Cp+Sq37OaAe0F3rA2wKw6O3jjPSdMFKszXaLA1oSgK0dpw4nTR/CYigdTwEYyPGolGDI5nXdZ8lW3lP7Lzys9caall45T/4tGkOX22AXe0F3ShqYotZbv47soBmuwtPdYPU+vJihlDdtwEpsdNYNKgMejE3i9ltcp2/q+mkL9e3svButMotPGRGjGCBcPv9ZkfX72gO6bnV7Vc573z29hRlY+s+B58tTgs/Fx3kp/rTrZFoKKGSTGjmTE4g+y4e8gaNBaDSuddXysyhTfOsqPqJ3ZXH3RRNdGacLZOX4NepQ2IN9S/8wE+6NdPL+5k3bmtWKS+p0Fssp3D9Wc5XH8WAI2gZuKgNCbGjGakcRhxumiitOHcspmpbq3jlKmMgzdOUdNa7/b7Buuj+ereN0kxDutNHODffEBPQyfgORpF5o/H3mPX1b8H15bUn+do/Xm/rx0VPpy/Tv9vUozDesuLX/MB/a6KTjeWcc1Sz6SY0cTqoojVRjHcEMdwQxyRWiOtkpXy5hqO1p/neEMprZK139r2SOIc1mauIFzdp7S1X3FAvxvhzKhUvpv5js/G8e91J9l37Qj7rh3luuVmUNo03BDH6/c8zcKEmfRFI/R6Uv5OhU7UMC9+CvPip7AuU+Fs42UO1Bbz0/Uijt0swaH0bVFxnC6a5b9ZyDOjFvZotIMVB4h3y8JcAYEJUaOYEDWKP6Y9QpO9hX/cOMVP149zoK6YKy21vhEhqrg3Lp1FI/6VB4fP6IuX4ykSFv2KA/rbCAcK4WoD84dOY/7QaR2xxJGb57jcXEO15QaNtmYUFPSilkG6SEYahzM+aiT/Mmgcxk46vr/u/a5UQf4gLSKRtIjEO7Z9oVzQbYa7SFgExNDi3AAGmG08irh52N3jfEDo6ZjAoVM62iUO8KSChIGwOro/B7AkSRQXF2O3292R6VcqoteBmKJAaamG0lIN1dVqzGYBjQaio2Xi4yVSU+2kpDhQq4PHTFWVmh07jOzeHcaFCxpOnbpCZGTwRrPJZGL79u1s3boVWZbZv38/arW6fwOxS5fUbN0awe7dYdTWen+6Sa9XmDjRSna2lWnTrEyaZMVg6JtAHA7Yv9/Atm0RFBToO1avLFjQ0iP5lZWVfPPNNxw+fJiamhpsNhuyLGMwGIiMjMRoNKLX6zEajRiNxg5yHQ4Hly5d4syZM1gsFpKTk9myZQthYWH954ZWVKj5y1+i2LXL6POSHYtFoLBQT2GhHgCNRiEz0+YUiIWsLCtGo28COXFCy/ffG9m1K4wbN7oKfvRoO3/+800vba/g3Xff5YcffqAvj+OqVCqefPJJXnnlFSIjIwMXB0iS5HHoOBwCGzdG8cEHkTgcfbMVdrvAsWM6jh3TsWlTJGo1pKe3jY6xY20kJTmIjZUQBDCZRCor1Zw4oWP/fgOXL7ufbElNtfPFF7UYjZKLHZAkifXr1/Pxxx/TfeXfnDlzmDVrFhcvXuTrr7/2+pC6IAjMnTuX1atXM3bsWK+qxpuA1d5+wB2amkRycoZQVBScHInDAcXFOoqLe/f9kyZZ+eyzWmJiXIdka2srK1euJD8/3+WzV199leeee67jeMqUKbz44otueZk3bx65ubmkp6f7li7x4tCoO7mfXXJBni7YsiWCkhINsbEScXEycXESQ4dKJCQ4EEUwmwXOntVy8qQOs7n/PClBgKefbuKVVxrQat33xLffftst+Q8++GAX8gEWLVrEhg0bqKys7HI+ISGBTz/9tLdBb3eeFb+9oNxcE7m5Jh97sp68PAN5eWFcuhS81wwlJjp444165s5t9eh+VldXs23bNldWRJFVq1a5vdfs7GwXAfQmT+SPF9QRLPQ1ClarYepUC1OnWnj11QbKyzXk5xs4cMBAYaEei6Xvo2PQIInly2/x+9/fQqfz3t7CwkK357Oyshg1apTbz+Li4gIZCfc4ISMEUgDdkZJiJyfHTk7OLaxWgcOH9RQUGMjPN1BWpvFL1UyebOV3v2tm0aJmn13Ymzfde0RTpkzxeE1zc7PLOX/dTA8C8DopH/Q5Ya1WYdasFmbNauFPf4IrV9QUFBg4c0ZHebmGujoVZrOASgVhYQrx8Q5GjrQzcaKV6dNbGTpU8jvaFT08/zV48GCP9+lO/cTGxvrNS6dI2L/5gP7CiBEOlixpApqC9htJSUkebJV7V9Nms3HkyBG3KiuQ+NU8qD19+nQMBtdJ9aKiIrf1t2/fTktLi0vQtXDhwt6qIP8FMJCKwWDgiSeecLnPgoICrl692qXu5cuX2bBhg0vdpUuXkpqa2qvf90cAXuOAuxnPP/88Q4YMcQnOcnJyKCkpAeDkyZMsXbqUhoauT+A89thjvPbaa33VNv6tDR1oiIyMZO3atSxfvrzL+bKyMh566CHS0tIoLS2l81zItGnTWLFiBffdd19f3VCf4wC4TUsT+wOZmZkMGTKE2tpaF5IaGhrIysoiJSWFyZMnk52dTWJiYqA6pOAm6zDwJ+U7o76+niVLlnSQP3PmTJ599lnS0tKIi4vz6KoGE78aAciyzIoVKygrK+s498gjjzBjxozb2i61hyEy4FRQfn4+xcXFLkLpx/sU3KmhX80IOH36tMu5Tz75BLPZTFpaGvHx8cTHx6PVam/bCBjwXlB3lJSUsGbNmi6BVmJiIqmpqYwZM4ZZs2YxadKkoD60LvZgsQcMRo8e3WMdSZIoLy8nLy+PDz74gMcff5xHH32Uq1evBkoF+RyIDTiMHDmy16pr2bJltLa2BkUInhZmiQMpDXHhwgW3qQVfUVVVxRdffNGnNuBhCxivc8J3ux2wWq288cYbfP/99x3R7cMPP8ywYcMwmUyYTCbq6uqoqanh+vXrXifhd+zY4TJt6XO392FOeEDipZdeYu/evR3H6enprF27FpVK5TZOOH/+PIcOHeLLL7+kpqamy+eVlZU0NTURERERdCPcEQfczeXgwYNdyBdFkbfeegtRFN3WFwSB8ePH88wzz7Bnzx5mz57t4hWazea+qCCfXtYxYLBz584ux/Pnz2fcuHE+XavX61m8eLHL+UD3/u4CcDtnebfil19+6XLcvUf3BE2395Kmpqb2aj64J369Pqh9Nxvh7m1vn3TxFSdOnOhyfP/99/eVj1/X21Lalwu24/PPP++YdOkJdXV1fPXVV11Uz7Jly/olEh4wKmjx4sVdlok3NTWRk5PjdmVcZxw/fpynnnoKk8nU4UK+/PLLxMTEBCoZd2c+qB1opKens27dOtasWdMRxTY2NrJy5UqSk5PJyMggOTmZiIgIGhsbuXHjBkVFRV3S1YIgsHr1ahYtWhQ0LgZ0HLBgwQIyMjJYv349+/bt61ilXFFRQUWF93dYT5w4kdzcXKZNmxbUNnpcmDUQImGAxMRE3n//fa5cucKePXsoKCigrKysQ8VA21xxUlISaWlpZGRkMHv2bIYOHRqwNvRmYZYw0J6STEhIYPny5R0T8jabDbvdjtFo9MmLCoBH5p8XZLFYBvQublqt1iP5gUZra6ujJy+ofQ9caNuIWKqpqWkO7SMTGPVTXV1tpm1/Ybk7351HgEynTYjz8vKquntEodK71XD79++vpG0PSXs3QXQRgMP5YSvQ9OGHHx6vrKxsFgQBURRDO6n62evbOausrGzevHnzcdpWHrdvZetwFx7rgFhgKDAWuCclJWXq5s2b701JSTG6seou/7cft2cXPX3ePqrc1fH3+zwZz/ZruhvTzsfd67ozvr35vnaUl5ebV65cebC8vPwocAYoBa4B9Tg3du6cGJf4546qKkA0mUzSt99+26woihATE6MNCwtTq1SqHtMX7Q3xRKY3sj3drDviPZHWvS3te/z25OF4I7mzILwJwGq1SuXl5c3bt2+vXL16dVF9ff054CJQBdwAGgGzpwSRDogBBgEpwAjaNnQY5hwdYYTesNITZKeqqQdqgHLgqvPvTaCBTtuad48DrE5dJdK200P7cS0Q5RRQaKNP75CcvJmAOid315zHTXTbU95dIGbuJEm7U2LXadvoWUvozeo9amCnx9PsJL2Ztu1KmjqrHk8qqLs6at+E2OC0DWJIAD4JoL3ztjpLS/ee74sA2j/XOouG0N4C/gjA4RwJtk5Bbgh3Gv4f38NOuiSCuXoAAAAASUVORK5CYII=" parent="DUyCDPSrj2KjHvBlCVzs-1" vertex="1">
          <mxGeometry x="137" y="240" width="40" height="40" as="geometry" />
        </mxCell>
        <mxCell id="0DxEKW-gdTNWnyqiKlgt-3" style="edgeStyle=orthogonalEdgeStyle;rounded=0;orthogonalLoop=1;jettySize=auto;html=1;entryX=0;entryY=0.5;entryDx=0;entryDy=0;entryPerimeter=0;" edge="1" parent="DUyCDPSrj2KjHvBlCVzs-1" source="0DxEKW-gdTNWnyqiKlgt-0" target="DUyCDPSrj2KjHvBlCVzs-22">
          <mxGeometry relative="1" as="geometry">
            <Array as="points">
              <mxPoint x="400" y="339" />
              <mxPoint x="400" y="260" />
            </Array>
          </mxGeometry>
        </mxCell>
        <mxCell id="0DxEKW-gdTNWnyqiKlgt-0" value="Amazon Kinesis Video&lt;br&gt;Streams &lt;b&gt;Webrtc&lt;/b&gt; SDK C" style="outlineConnect=0;dashed=0;verticalLabelPosition=bottom;verticalAlign=top;align=center;shape=mxgraph.aws3.android;fillColor=#96BF3D;gradientColor=none;html=1;" vertex="1" parent="DUyCDPSrj2KjHvBlCVzs-1">
          <mxGeometry x="259.08" y="319" width="40" height="40" as="geometry" />
        </mxCell>
      </root>
    </mxGraphModel>
  </diagram>
</mxfile>
